<svg width="28" height="28" viewBox="0 0 28 28" fill="none" xmlns="http://www.w3.org/2000/svg">
<g clip-path="url(#clip0_449_495)">
<rect width="28" height="28" rx="4.66667" fill="#9650FA"/>
<mask id="mask0_449_495" style="mask-type:alpha" maskUnits="userSpaceOnUse" x="0" y="0" width="28" height="28">
<rect width="28" height="28" fill="#D9D9D9"/>
</mask>
<g mask="url(#mask0_449_495)">
<path d="M11.1417 18.1013L21.2199 8.02308C21.3934 7.84957 21.5994 7.76095 21.838 7.75719C22.0766 7.75346 22.2863 7.84209 22.4673 8.02308C22.6483 8.20405 22.7388 8.41195 22.7388 8.64678C22.7388 8.88159 22.6483 9.08949 22.4673 9.27048L11.8798 19.8579C11.6689 20.0688 11.4229 20.1743 11.1417 20.1743C10.8605 20.1743 10.6144 20.0688 10.4035 19.8579L5.53271 14.9871C5.35921 14.8136 5.27357 14.6076 5.27581 14.369C5.27807 14.1305 5.36968 13.9207 5.55065 13.7397C5.73164 13.5588 5.93954 13.4683 6.17435 13.4683C6.40918 13.4683 6.61708 13.5588 6.79805 13.7397L11.1417 18.1013Z" fill="white"/>
</g>
</g>
<defs>
<clipPath id="clip0_449_495">
<rect width="28" height="28" rx="4.66667" fill="white"/>
</clipPath>
</defs>
</svg>
