<svg width="17" height="22" viewBox="0 0 17 22" fill="none" xmlns="http://www.w3.org/2000/svg">
<path d="M3.51758 21.418C1.49609 21.418 0.490234 20.4023 0.490234 18.3613V3.54688C0.490234 1.51562 1.50586 0.480469 3.51758 0.480469H8.15625C9.25 0.480469 9.86523 0.646484 10.6074 1.4082L15.9883 6.88672C16.7695 7.6875 16.916 8.23438 16.916 9.49414V18.3613C16.916 20.3926 15.9102 21.418 13.8887 21.418H3.51758ZM3.58594 19.8457H13.8105C14.8262 19.8457 15.3438 19.3086 15.3438 18.332V9.5625H9.77734C8.55664 9.5625 7.94141 8.95703 7.94141 7.72656V2.05273H3.5957C2.58008 2.05273 2.0625 2.60938 2.0625 3.57617V18.332C2.0625 19.3086 2.58008 19.8457 3.58594 19.8457ZM9.95312 8.08789H15.041L9.41602 2.35547V7.54102C9.41602 7.93164 9.5625 8.08789 9.95312 8.08789ZM12.2969 12.2578C12.6387 12.2578 12.8926 12.5215 12.8926 12.8535C12.8926 13.1953 12.6387 13.459 12.2969 13.459H4.88477C4.5332 13.459 4.26953 13.1953 4.26953 12.8535C4.26953 12.5215 4.5332 12.2578 4.88477 12.2578H12.2969ZM12.2969 15.666C12.6387 15.666 12.8926 15.9395 12.8926 16.2812C12.8926 16.6133 12.6387 16.8672 12.2969 16.8672H4.88477C4.5332 16.8672 4.26953 16.6133 4.26953 16.2812C4.26953 15.9395 4.5332 15.666 4.88477 15.666H12.2969Z" fill="black"/>
</svg>
