<svg width="28" height="28" viewBox="0 0 28 28" fill="none" xmlns="http://www.w3.org/2000/svg">
<mask id="mask0_1220_401" style="mask-type:alpha" maskUnits="userSpaceOnUse" x="0" y="0" width="28" height="28">
<rect width="28" height="28" fill="#D9D9D9"/>
</mask>
<g mask="url(#mask0_1220_401)">
<path d="M7.02694 20.1742C8.01861 19.4383 9.09889 18.8572 10.2678 18.4309C11.4367 18.0046 12.6808 17.7915 14 17.7915C15.3192 17.7915 16.5633 18.0046 17.7322 18.4309C18.9011 18.8572 19.9814 19.4383 20.973 20.1742C21.6985 19.377 22.2732 18.4541 22.6973 17.4056C23.1213 16.3571 23.3333 15.2218 23.3333 13.9998C23.3333 11.4137 22.4243 9.21161 20.6062 7.39356C18.7882 5.5755 16.5861 4.66648 14 4.66648C11.4139 4.66648 9.2118 5.5755 7.39374 7.39356C5.57569 9.21161 4.66666 11.4137 4.66666 13.9998C4.66666 15.2218 4.87868 16.3571 5.30272 17.4056C5.72677 18.4541 6.30151 19.377 7.02694 20.1742ZM14 14.8748C12.935 14.8748 12.0369 14.5091 11.3055 13.7777C10.5741 13.0463 10.2084 12.1481 10.2084 11.0831C10.2084 10.0182 10.5741 9.12001 11.3055 8.38861C12.0369 7.65721 12.935 7.2915 14 7.2915C15.0649 7.2915 15.9631 7.65721 16.6945 8.38861C17.4259 9.12001 17.7916 10.0182 17.7916 11.0831C17.7916 12.1481 17.4259 13.0463 16.6945 13.7777C15.9631 14.5091 15.0649 14.8748 14 14.8748ZM14 25.0831C12.4609 25.0831 11.0171 24.7937 9.66877 24.2148C8.32038 23.636 7.14735 22.8477 6.1497 21.8501C5.15206 20.8524 4.36382 19.6794 3.78498 18.331C3.20612 16.9827 2.91669 15.5389 2.91669 13.9998C2.91669 12.4607 3.20612 11.017 3.78498 9.66859C4.36382 8.32019 5.15206 7.14717 6.1497 6.14951C7.14735 5.15188 8.32038 4.36364 9.66877 3.7848C11.0171 3.20594 12.4609 2.9165 14 2.9165C15.5391 2.9165 16.9828 3.20594 18.3312 3.7848C19.6796 4.36364 20.8526 5.15188 21.8503 6.14951C22.8479 7.14717 23.6362 8.32019 24.215 9.66859C24.7939 11.017 25.0833 12.4607 25.0833 13.9998C25.0833 15.5389 24.7939 16.9827 24.215 18.331C23.6362 19.6794 22.8479 20.8524 21.8503 21.8501C20.8526 22.8477 19.6796 23.636 18.3312 24.2148C16.9828 24.7937 15.5391 25.0831 14 25.0831Z" fill="#49454F"/>
</g>
</svg>
