<svg width="23" height="21" viewBox="0 0 23 21" fill="none" xmlns="http://www.w3.org/2000/svg">
<path d="M16.0078 20.6816C15.5293 20.6816 15.1973 20.4277 14.6016 19.9004L11.2324 16.9023H4.96289C2.05273 16.9023 0.490234 15.291 0.490234 12.4297V4.94922C0.490234 2.08789 2.05273 0.476562 4.96289 0.476562H17.541C20.4512 0.476562 22.0137 2.07812 22.0137 4.94922V12.4297C22.0137 15.3008 20.4512 16.9023 17.541 16.9023H17.0723V19.4414C17.0723 20.1934 16.6914 20.6816 16.0078 20.6816ZM15.6074 18.8945V16.0625C15.6074 15.5352 15.8125 15.3301 16.3398 15.3301H17.541C19.5137 15.3301 20.4414 14.3242 20.4414 12.4199V4.94922C20.4414 3.04492 19.5137 2.04883 17.541 2.04883H4.96289C3 2.04883 2.0625 3.04492 2.0625 4.94922V12.4199C2.0625 14.3242 3 15.3301 4.96289 15.3301H11.291C11.8379 15.3301 12.1113 15.4082 12.4824 15.7891L15.6074 18.8945Z" fill="black"/>
</svg>
