<svg width="24" height="23" viewBox="0 0 24 23" fill="none" xmlns="http://www.w3.org/2000/svg">
<path d="M5.027 17.6744C6.01867 16.9385 7.09895 16.3575 8.26786 15.9312C9.43676 15.5049 10.6808 15.2917 12.0001 15.2917C13.3193 15.2917 14.5633 15.5049 15.7322 15.9312C16.9012 16.3575 17.9814 16.9385 18.9731 17.6744C19.6985 16.8772 20.2733 15.9543 20.6973 14.9058C21.1214 13.8573 21.3334 12.7221 21.3334 11.5001C21.3334 8.91394 20.4244 6.71186 18.6063 4.8938C16.7882 3.07575 14.5862 2.16672 12.0001 2.16672C9.41394 2.16672 7.21186 3.07575 5.3938 4.8938C3.57575 6.71186 2.66672 8.91394 2.66672 11.5001C2.66672 12.7221 2.87874 13.8573 3.30279 14.9058C3.72683 15.9543 4.30157 16.8772 5.027 17.6744ZM12.0001 12.375C10.9351 12.375 10.0369 12.0093 9.30552 11.2779C8.57412 10.5465 8.20842 9.64834 8.20842 8.58339C8.20842 7.51843 8.57412 6.62026 9.30552 5.88885C10.0369 5.15745 10.9351 4.79175 12.0001 4.79175C13.065 4.79175 13.9632 5.15745 14.6946 5.88885C15.426 6.62026 15.7917 7.51843 15.7917 8.58339C15.7917 9.64834 15.426 10.5465 14.6946 11.2779C13.9632 12.0093 13.065 12.375 12.0001 12.375ZM12.0001 22.5834C10.4609 22.5834 9.01721 22.2939 7.66883 21.7151C6.32044 21.1362 5.14741 20.348 4.14976 19.3503C3.15212 18.3527 2.36388 17.1797 1.78504 15.8313C1.20618 14.4829 0.916748 13.0392 0.916748 11.5001C0.916748 9.96095 1.20618 8.51721 1.78504 7.16883C2.36388 5.82044 3.15212 4.64741 4.14976 3.64976C5.14741 2.65212 6.32044 1.86388 7.66883 1.28504C9.01721 0.706179 10.4609 0.416748 12.0001 0.416748C13.5392 0.416748 14.9829 0.706179 16.3313 1.28504C17.6797 1.86388 18.8527 2.65212 19.8503 3.64976C20.848 4.64741 21.6362 5.82044 22.2151 7.16883C22.7939 8.51721 23.0834 9.96095 23.0834 11.5001C23.0834 13.0392 22.7939 14.4829 22.2151 15.8313C21.6362 17.1797 20.848 18.3527 19.8503 19.3503C18.8527 20.348 17.6797 21.1362 16.3313 21.7151C14.9829 22.2939 13.5392 22.5834 12.0001 22.5834Z" fill="#49454F"/>
</svg>
