<svg width="28" height="28" viewBox="0 0 28 28" fill="none" xmlns="http://www.w3.org/2000/svg">
<g clip-path="url(#clip0_449_409)">
<rect width="28" height="28" rx="4.66667" fill="#E7E0EC"/>
<mask id="mask0_449_409" style="mask-type:alpha" maskUnits="userSpaceOnUse" x="0" y="0" width="28" height="28">
<rect width="28" height="28" fill="#D9D9D9"/>
</mask>
<g mask="url(#mask0_449_409)">
<path d="M11.1417 18.1013L21.2199 8.02308C21.3934 7.84957 21.5994 7.76095 21.838 7.75719C22.0766 7.75346 22.2863 7.84209 22.4673 8.02308C22.6483 8.20405 22.7388 8.41195 22.7388 8.64678C22.7388 8.88159 22.6483 9.08949 22.4673 9.27048L11.8798 19.8579C11.6689 20.0688 11.4229 20.1743 11.1417 20.1743C10.8605 20.1743 10.6145 20.0688 10.4036 19.8579L5.53273 14.9871C5.35923 14.8136 5.27359 14.6076 5.27583 14.369C5.27809 14.1305 5.3697 13.9207 5.55067 13.7397C5.73166 13.5588 5.93956 13.4683 6.17437 13.4683C6.4092 13.4683 6.6171 13.5588 6.79807 13.7397L11.1417 18.1013Z" fill="white"/>
</g>
</g>
<defs>
<clipPath id="clip0_449_409">
<rect width="28" height="28" rx="4.66667" fill="white"/>
</clipPath>
</defs>
</svg>
