<svg width="79" height="60" viewBox="0 0 79 60" fill="none" xmlns="http://www.w3.org/2000/svg">
<path d="M38.125 60.0067C54.3484 60.0067 67.5 54.9699 67.5 48.7567C67.5 42.5434 54.3484 37.5067 38.125 37.5067C21.9016 37.5067 8.75 42.5434 8.75 48.7567C8.75 54.9699 21.9016 60.0067 38.125 60.0067Z" fill="#9650FA"/>
<path opacity="0.1" d="M38.125 51.2566C54.3484 51.2566 63.125 45.6316 67.5 48.9665C67.5 55.0638 54.3484 60.0066 38.125 60.0066C21.9016 60.0066 8.75 55.0638 8.75 48.9665C11.875 45.6316 21.9016 51.2566 38.125 51.2566Z" fill="black"/>
<rect y="1.25" width="12.5" height="25" rx="6.25" fill="black"/>
<rect width="10" height="20" rx="5" transform="matrix(-0.707107 -0.707107 -0.707107 0.707107 78.4728 7.07104)" fill="black"/>
<rect x="78.4728" y="21.6053" width="10" height="20" rx="5" transform="rotate(135 78.4728 21.6053)" fill="black"/>
</svg>
